<svg width="20" height="23" viewBox="0 0 20 23" fill="none" xmlns="http://www.w3.org/2000/svg">
<circle cx="10.3335" cy="18.1074" r="4" fill="#770E9C"/>
<path fill-rule="evenodd" clip-rule="evenodd" d="M19.3023 9.06977H17.8698C17.5275 5.38822 14.6118 2.47246 10.9302 2.13023V0.697674C10.9302 0.312359 10.6179 0 10.2326 0C9.84724 0 9.53488 0.312359 9.53488 0.697674V2.13023C5.85334 2.47246 2.93758 5.38822 2.59535 9.06977H0.697674C0.312359 9.06977 0 9.38213 0 9.76744C0 10.1528 0.312359 10.4651 0.697674 10.4651H2.59535C2.93583 14.1501 5.85459 17.0688 9.53953 17.4093C9.53953 17.4093 9.53953 17.4093 9.53953 17.4465V19.307C9.53953 19.6923 9.85189 20.0047 10.2372 20.0047C10.6225 20.0047 10.9349 19.6923 10.9349 19.307V17.4465C10.9349 17.4465 10.9349 17.4465 10.9349 17.4093C14.6162 17.0646 17.53 14.1469 17.8698 10.4651H19.3023C19.6876 10.4651 20 10.1528 20 9.76744C20 9.38213 19.6876 9.06977 19.3023 9.06977ZM10.2327 16.0464C6.7649 16.0464 3.95366 13.2351 3.95366 9.7673C3.95366 6.29947 6.7649 3.48823 10.2327 3.48823C13.7006 3.48823 16.5118 6.29947 16.5118 9.7673C16.5118 13.2351 13.7006 16.0464 10.2327 16.0464Z" fill="#770E9C"/>
</svg>
